<?xml version="1.0" encoding="utf-8"?>
<!-- Generator: Adobe Illustrator 21.1.0, SVG Export Plug-In . SVG Version: 6.00 Build 0)  -->
<svg version="1.1" id="Layer_1" xmlns="http://www.w3.org/2000/svg" xmlns:xlink="http://www.w3.org/1999/xlink" x="0px" y="0px"
	 viewBox="0 0 1865.8 811.3" style="enable-background:new 0 0 1865.8 811.3;" xml:space="preserve">
<g>
	<path d="M304.4,44.4c-56.4,0-60.7,132.4-60.7,242.3c0,180.6,145.7,481.8,555.2,481.8c295.3,0,460.6-158,741-425.5
		c2.7-2.6,2.8-6.9,0.1-9.5l-5.5-5.5c-2.6-2.6-5.7-1.4-8.5,1.1c-256.8,225-401.8,414.3-728.4,414.3c-354.4,0-502.6-291.9-502.6-452.8
		c0-132.6-2.8-177.4,14.1-177.4s29,29.3,29,180.2c0,167.9-45.5,232.5-112.8,307.9l9.8,9.2c24.9-23.4,130.7-96.5,130.7-317.1
		C365.7,154.9,360.8,44.4,304.4,44.4z"/>
	<path d="M596.7,532.4c-5.7-16.9-17.5-63.8-17.5-164.9c0-26.5,2-55.1-45.1-55.1c-68.9,3.6-124.8,111.5-124.8,172.6
		c0,61.1,50.4,132.1,138,94.9S597.4,534.7,596.7,532.4z M477.9,462.7c0-100.1,48.5-106,48.5-106l9.3,177.9
		C535.7,534.5,477.9,562.7,477.9,462.7z"/>
	<path d="M1145.1,242.4c-59.5,0-93.8,102.4-72,180.6s56.9,108.7,100.7,96c51.6-15,84.2-148.1,88-207.7c0.3-4.4-0.2-8.9-3.7-11
		l1.2,0.7c-4.2-2.5-11-0.9-11.3,4.3c-3.5,71.5-41.1,171.1-73.8,177.4c-48.4,9.3-66.9-112.5-57.8-153.5c9.1-41,20.3-62.6,32.9-59.5
		c9,2.2,8.6,3.3-2.9,58.3c-7,25.5-12.9,44.2-38.9,105.8c4.4,7.8,13.1,8.7,13.1,8.7s24.9-34.9,42.6-108
		C1183.1,252,1174.9,242.4,1145.1,242.4z"/>
	<path d="M1229,246.7c1.1,44,2,133.9,29.1,247.1c1.5,6.1,6.6,10.2,12.3,9.7c34.9-3,5.4-0.1,34.6-2.9c5.5-0.5,10.6-5.1,10.7-11.3
		c1.8-110.8,1.8-128.8,7.2-195.4c0.1-1.1,1.2-1.7,2-1c14.8,14.9,19,25.1,29.3,17.4c10.8-8-1.7-22.9-6.9-31.7
		c-6-10.2-20.3-27.9-32.7-24.8c-19.7,5-16.9,146.8-24.1,146.8c-7.2,0-2.9-44.9-10.8-146.8c-3.3-43-44.7-12.6-50.2-8.4
		C1229.2,245.7,1229,247.2,1229,246.7z"/>
	<path d="M1517.5,376.6c4.7,34.3,13.2,104.5,46.6,190.5c1.8,4.6,6.7,7.3,11.5,6.4c30.1-5.6,4.7-0.6,29.9-5.6c4.7-0.9,8.8-5,8.3-9.8
		c-8-86.9-9.5-100.9-10.6-153.6c0-0.9,0.9-1.5,1.6-0.9c14.1,10.3,18.7,17.8,27,10.8c8.7-7.3-3.5-17.7-8.7-24.1
		c-6.1-7.4-20-19.9-30.6-16.3c-16.7,5.8-2.1,116.4-8.4,117.1c-6.2,0.7-6.4-34.9-22-113.8c-6.6-33.3-40-5.6-44.4-1.8
		C1517.5,375.9,1517.6,377,1517.5,376.6z"/>
	<path d="M1430.3,91.5c-18.1,0-21.3,0-21.3,327.5c0,275.9,38.2,381.3,130.5,392.2c55.7,0,48.2-15.6,47.8-19.7
		c-112,0-131.5-90.6-131.5-371.3C1455.9,94,1454.4,91.5,1430.3,91.5z"/>
	<g>
		<path d="M681.3,358.4c0.2,0.1,0.4,0.2,0.6,0.3c0.2,0,0.4,0.1,0.6,0.2L681.3,358.4z"/>
		<path d="M681.9,358.7c-4.5-0.9-10.3,1.8-9.6,6.3c9.9,63.6-10.6,154.4-39.1,171.4c-13.6,8.1-30.3,13.9-42.7-27.3L561,555
			c25.3,22.7,51.8,26.7,78.5,13.3c47.7-23.9,54.8-147.8,47.4-201C686.4,363.6,685.2,360,681.9,358.7z"/>
	</g>
	<g>
		<path d="M900,312.2c0.2,0.1,0.4,0.2,0.6,0.3c0.2,0.1,0.4,0.1,0.6,0.2L900,312.2z"/>
		<path d="M905.6,322.1c-0.5-4.2-1.7-8.1-5-9.6c-4.5-1-9.9,2-9.6,7c7.4,111.5-14.4,180.6-38.7,194.9c-7.8,4.6-19.1,9.3-29.4-2.8
			c-8.8-12.1-16.2-55.7-16.2-112.8c0-81.3-11-80.1-34.3-75.6c-23.4,4.4-35.7,30.4-53.6,55.3l-7.1-43c-1.4-5.3-6.2-8.7-11.2-7.7
			l-31.4,6.1c-5.2,1-8.8,6.4-8.1,12.3l23.9,198.2c0.6,5.2,4.4,9.2,9.1,9.5c9.3,0.6,26.7-0.3,42.6-2.8c10.5-1.6-38.1-161.9,19.8-166
			c1.2,43,2.7,105.6,18.4,137.2l0,0c0.1,0.1,0.1,0.2,0.2,0.3c2.1,4.2,4.5,7.9,7.2,10.9c21.3,25.4,56.8,20.9,75.4,7.7
			C911.1,503.7,912.9,381.3,905.6,322.1z"/>
	</g>
	<g>
		<path d="M1163.6,301.1c0.2,0.1,0.3,0.3,0.5,0.5c0.2,0.1,0.4,0.2,0.6,0.4L1163.6,301.1z"/>
		<path d="M1166.4,312.5c0.6-4.1,0.5-8.3-2.2-10.8c-4-2.5-10-1.4-11,3.6c-22.6,109-71.9,170.9-96.1,185.2
			c-7.8,4.6-19.1,9.3-29.4-2.8c-8.8-12.1-16.2-55.7-16.2-112.8c0-81.3-11-80.1-34.3-75.6c-23.4,4.4-35.7,30.4-53.6,55.3l-7.1-43
			c-1.4-5.3-6.2-8.7-11.2-7.7l-31.4,6.1c-5.2,1-8.8,6.4-8.1,12.3l23.9,198.2c0.6,5.2,4.4,9.2,9.1,9.5c9.3,0.6,26.7-0.3,42.6-2.8
			c10.5-1.6-38.1-161.9,19.8-166c1.2,43,2.7,105.6,18.4,137.2l0,0c0.1,0.1,0.1,0.2,0.2,0.3c2.1,4.2,4.5,7.9,7.2,10.9
			c21.3,25.4,56.8,20.9,75.4,7.7C1115.7,479.6,1157.7,371.4,1166.4,312.5z"/>
	</g>
	<g>
		<g>
			<path d="M1750.5,397.2c0.2,0,0.3,0.1,0.5,0.2c0.2,0,0.3,0,0.5,0.1L1750.5,397.2z"/>
			<path d="M1745.1,403.4c-0.6-2.7-1.6-5.2-4.1-6.1c-3.3-0.5-7.1,1.8-6.7,5.1c10.2,72.7,7.3,118.9-9.8,129.4
				c-8.1,5-27,13.5-35.1-26.9c-0.7-8.9-1.3-18.1-1.3-26.5c-0.1-23.2,0.9-19.5,2.1-54.3c0.5-13-36-20.1-37.7-2.8
				c-1.4,14.4-7.8,89.3,17.5,121.5c0.1,0.1,0.1,0.2,0.2,0.3c0.3,0.4,0.6,0.7,0.8,1c1.9,2.3,4,4.3,6.3,6c0.1,0.1,0.2,0.1,0.3,0.2
				c0.4,0.3,0.9,0.6,1.3,0.9c2.9,2,6,3.5,9.5,4.6c0.2,0.1,0.5,0.2,0.7,0.2c0.1,0,0.1,0,0.1,0c0,0,0,0,0,0c14.6,4.3,30.8-0.1,40.3-7
				C1766.8,522,1753,441.8,1745.1,403.4z"/>
		</g>
		
			<ellipse transform="matrix(0.9978 -6.573248e-02 6.573248e-02 0.9978 -21.1029 110.7019)" cx="1671.8" cy="376" rx="20.7" ry="20.7"/>
	</g>
	<path d="M1817,340.8c-41.1-0.5-49.1,50.9-49.1,50.9s-22.4-1.4-32.5,6.6c-3.6,14.1,43.7,322.9,49.8,356.5c0.8,4.4,3.9,8.1,8.2,9.6
		l6,2.1c8.8,3.1,17.8-4.1,16.7-13.3l-24.3-212.9c0,0,6.3-0.5,23.9-0.1c21.2,2,47.1-51.1,49.8-97.6
		C1868.1,396.4,1858.1,341.3,1817,340.8z M1838.4,444.8c-6,39.8-15.4,77.7-45.3,73.2c-10-92.1-11.9-102.5-11.9-102.5
		s7-49.3,28.4-50.3S1844.4,405,1838.4,444.8z"/>
	<path d="M136.3,0C67.8-0.8,54.5,84.9,54.5,84.9S17.1,82.6,0.3,95.9c-6,23.5,72.8,538,82.9,594c1.3,7.4,6.6,13.5,13.6,16l9.9,3.5
		c14.6,5.2,29.6-6.8,27.9-22.2L94.3,332.7c0,0,10.4-0.8,39.8-0.1c35.4,3.3,78.5-85.1,82.9-162.6C221.5,92.6,204.9,0.8,136.3,0z
		 M172,173.3c-10,66.3-25.7,129.4-75.5,121.9C79.9,141.8,76.6,124.4,76.6,124.4s11.6-82.1,47.3-83.8C159.6,39,181.9,107,172,173.3z"
		/>
	<path d="M1795.6,98.2c-8.4-10.9-23.7-13.2-34.9-5.4l0,0l-73.8,56.9l-193.9,26.6l-17.6,19.2l134.1,13.8l-55.5,42.8l-60.6-5.4l-10,13
		l91.9,40.6L1792,133.3l0,0C1802.3,124.5,1804,109,1795.6,98.2z"/>
</g>
</svg>
